<svg width="36" height="36" viewBox="0 0 36 36" fill="none" xmlns="http://www.w3.org/2000/svg">
<path d="M35 20.516L1 20L1.017 22.625C1.034 23.218 1.372 23.813 2.097 24.257L9.004 28.485L15.912 32.712C17.438 33.647 20.057 33.56 21.437 32.712C22.82 31.867 22.129 31.445 23.51 30.598C24.891 29.754 25.581 30.176 26.964 29.332C28.347 28.484 33.873 25.105 33.873 25.105C34.634 24.639 35.014 24.028 35.016 23.416L35 20.516V20.516Z" fill="#F4900C"/>
<path d="M33.873 18.721C33.873 18.721 3.47903 17.031 2.09703 17.876C0.715027 18.721 0.571027 20.323 2.09703 21.258L9.00403 25.486L15.912 29.714C17.438 30.649 20.057 30.562 21.437 29.714C22.82 28.869 22.129 28.447 23.51 27.6C24.891 26.756 25.581 27.178 26.964 26.334C28.347 25.486 33.872 22.106 33.872 22.106C35.398 21.171 35.399 19.655 33.873 18.721V18.721Z" fill="#FFAC33"/>
<path d="M10.222 24.642L17.293 28.87C17.293 28.87 18.707 29.714 20.121 28.87C21.318 28.153 22.242 26.756 22.242 26.756L10.222 24.642V24.642Z" fill="#FFD983"/>
<path d="M33.739 18.565C31.798 15.976 7.04504 14.153 3.16204 17.798C2.37804 18.535 0.897043 20.018 2.47404 22.237C3.16204 23.399 4.59004 24.156 4.78004 23.797C5.22304 22.955 6.10704 22.219 7.43304 22.29C7.35804 22.468 8.07404 25.497 7.99304 25.565C7.06804 26.351 8.99004 29.083 11.242 27.628C11.803 28.736 15.198 31.471 17.541 27.73C18.007 28.574 22.901 29.858 24.26 25.964C24.249 26.031 24.252 26.088 24.234 26.16C24.145 26.51 24.956 26.813 25.782 26.523C27.171 26.037 29.177 24.83 29.532 23.505C30.523 23.332 31.266 23.607 31.838 24.363C32.121 24.737 33.092 24.827 33.507 24.338C34.239 23.479 35.44 20.835 33.739 18.565Z" fill="#77B255"/>
<path d="M31 25.041C31 25.57 30.104 26 29 26H7C5.896 26 5 25.57 5 25.041V18.49H31V25.041V25.041Z" fill="#FFCC4D"/>
<path d="M33.3111 19.987C33.3111 22.755 28.725 25 23.069 25C17.411 25 12.826 22.755 12.826 19.987C12.826 17.218 17.411 14.974 23.069 14.974C28.725 14.974 33.3111 17.219 33.3111 19.987V19.987Z" fill="#BE1931"/>
<path d="M35 14.516L1 14V16.625H1.017C1.034 17.218 1.372 17.813 2.097 18.257L9.004 22.485L15.912 26.712C17.438 27.647 20.057 27.56 21.437 26.712C22.82 25.867 22.129 25.445 23.51 24.598C24.891 23.754 25.581 24.176 26.964 23.332C28.347 22.484 33.873 19.105 33.873 19.105C34.634 18.639 35.014 18.028 35.016 17.416V17.411L35 14.516Z" fill="#F4900C"/>
<path d="M33.873 12.721L20.058 4.267C18.532 3.333 16.058 3.333 14.531 4.267L7.62303 8.495C6.24203 9.34 6.93203 9.763 5.55103 10.608C4.17003 11.453 3.47903 11.03 2.09703 11.876C0.715027 12.721 0.571027 14.323 2.09703 15.258L15.912 23.713C17.438 24.648 20.057 24.561 21.437 23.713C22.82 22.868 22.129 22.446 23.51 21.599C24.891 20.755 25.581 21.177 26.964 20.333C28.347 19.485 33.872 16.105 33.872 16.105C35.398 15.171 35.399 13.655 33.873 12.721V12.721Z" fill="#FFAC33"/>
<path d="M32.85 13.568L18.7071 5.113C18.7071 5.113 17.2001 4.322 15.8781 5.113L8.91605 9.275C7.71905 9.99 7.88305 10.738 6.68605 11.453C5.49005 12.169 4.34705 12.006 3.15005 12.721C1.73605 13.568 3.15005 14.414 3.15005 14.414L17.2921 22.869C17.2921 22.869 18.7061 23.713 20.1201 22.869C21.3171 22.152 21.0461 21.472 22.2411 20.755C23.4381 20.038 24.6881 20.136 25.8851 19.421C27.0821 18.707 32.8481 15.258 32.8481 15.258C32.8481 15.258 34.171 14.357 32.85 13.568Z" fill="#FFD983"/>
</svg>
